<svg viewBox="0 0 23.999 24" fill="none" xmlns="http://www.w3.org/2000/svg">
<path d="M16.8496 0C20.7918 0 23.9988 3.20718 23.999 7.14941V16.8506C23.9989 20.7928 20.7919 24 16.8496 24H7.14941C3.20714 24 0.000171285 20.7928 0 16.8506V7.14941C0.000171179 3.20718 3.20714 0 7.14941 0H16.8496ZM7.14941 2.41406C4.53429 2.41406 2.41423 4.53429 2.41406 7.14941V16.8506C2.41423 19.4657 4.53429 21.5859 7.14941 21.5859H16.8496C19.4647 21.5859 21.5848 19.4657 21.585 16.8506V7.14941C21.5848 4.53429 19.4647 2.41406 16.8496 2.41406H7.14941ZM12 5.79297C15.4226 5.79311 18.207 8.5774 18.207 12C18.207 15.4225 15.4225 18.2069 12 18.207C8.57736 18.207 5.79305 15.4226 5.79297 12C5.79297 8.57736 8.57731 5.79297 12 5.79297ZM12 8.20703C9.90529 8.20703 8.20703 9.90525 8.20703 12C8.20709 14.0947 9.90528 15.793 12 15.793C14.0946 15.7928 15.7929 14.0946 15.793 12C15.793 9.90534 14.0946 8.20717 12 8.20703ZM18.2188 4.35254C19.0402 4.35258 19.7061 5.01841 19.7061 5.83984C19.7059 6.66116 19.0401 7.3271 18.2188 7.32715C17.3974 7.32715 16.7316 6.66119 16.7314 5.83984C16.7314 5.01838 17.3973 4.35254 18.2188 4.35254Z" fill="currentColor"/>
</svg>
